<svg xmlns="http://www.w3.org/2000/svg" id="Layer_1" viewBox="-321 591 148 44" style="fill: #fff"><path d="M-177.7 634.5h-138.5c-2.6 0-4.7-2.1-4.7-4.7v-33.6c0-2.6 2.1-4.7 4.7-4.7h138.5c2.6 0 4.7 2.1 4.7 4.7v33.6c0 2.6-2.1 4.7-4.7 4.7zm-138.6-42c-2.1 0-3.7 1.7-3.7 3.7v33.6c0 2 1.7 3.7 3.7 3.7h138.5c2.1 0 3.7-1.7 3.7-3.7v-33.6c0-2.1-1.7-3.7-3.7-3.7h-138.5z"/><path d="M-224.4 622.5c-.7.3-1.4.6-2.3.6-1.9 0-3.6-1.5-4.1-4l1.5-.1 4.7-1.9c-.1-.5-.4-1.3-1.4-2-.6-.4-1.3-.6-2.1-.6-2.1 0-4.6 1.5-4.6 4.6 0 1.5.6 3.2 2.1 4.2 1 .7 2 .8 2.7.8.6 0 1.3-.1 2-.4.2-.1.4-.2.7-.4l.8-.8c.2-.1 0 0 0 0zm-6.5-4.5c0-2.2 1.5-2.8 2.3-2.8 1.1 0 2 .9 2 1.7 0 .3-.2.4-.6.5l-3.7 1.6v-1z" class="st0"/><path d="M-234.2 622.4v-11.3c.1-.7.3-.9.9-1.3h-2.9l-1.5.7h1.6v12.3c0 .4-.1.5-.5 1.1h3.5l.7-.4c-.3 0-.7-.1-1-.1-.7-.1-.8-.3-.8-1z" class="st0"/><path d="M-237.2 614.8h-4.1c-1.1 0-2.5.2-3.6 1.1-.9.7-1.3 1.8-1.3 2.7 0 1.6 1.2 3.1 3.3 3.1h.6c-.1.2-.2.4-.2.8 0 .6.3 1 .6 1.4-.9.1-2.6.2-3.8.9-1.2.7-1.6 1.7-1.6 2.4 0 1.5 1.4 2.9 4.3 2.9 3.5 0 5.3-1.9 5.3-3.8 0-1.4-.8-2.1-1.7-2.8l-.7-.6c-.2-.2-.5-.4-.5-.9 0-.4.3-.7.6-1 .8-.7 1.7-1.4 1.7-2.8 0-1.5-1-2.3-1.4-2.7h1.2l1.3-.7zM-239 627c0 1.2-1 2.2-3 2.2-2.2 0-3.5-1-3.5-2.4s1.3-1.9 1.7-2.1c.8-.3 1.9-.3 2.1-.3h.5c1.6 1.1 2.2 1.6 2.2 2.6zm-1.6-6.4c-.3.3-.9.6-1.4.6-1.7 0-2.5-2.2-2.5-3.5 0-.5.1-1.1.4-1.5.3-.4.9-.7 1.4-.7 1.7 0 2.5 2.2 2.5 3.7.1.3.1 1-.4 1.4zm-11.3-6c-3.1 0-5.2 2.2-5.2 4.8 0 2.2 1.7 4.7 4.9 4.7 3.3 0 5.1-2.5 5.1-4.8 0-2.4-1.8-4.7-4.8-4.7zm2.2 7.9c-.5.6-1.3 1-2.1 1-2.4 0-3.4-3.2-3.4-5.2 0-.9.1-1.7.9-2.4.5-.4 1.2-.7 1.8-.7 2.5 0 3.3 3.3 3.3 5.1.1.8 0 1.6-.5 2.2zm-12.9-7.9c-3.1 0-5.2 2.2-5.2 4.8 0 2.2 1.7 4.7 4.9 4.7 3.3 0 5.1-2.5 5.1-4.8 0-2.4-1.8-4.7-4.8-4.7zm2.2 7.9c-.5.6-1.3 1-2.1 1-2.4 0-3.4-3.2-3.4-5.2 0-.9.1-1.7.9-2.4.5-.4 1.1-.7 1.8-.7 2.5 0 3.3 3.3 3.3 5.1.1.8 0 1.6-.5 2.2zm-13.5-2.2l2.8-.2v3c-.6.2-1.2.5-2.4.5-4.1 0-6.7-3.3-6.7-6.8 0-3.3 2.2-5.5 5.2-5.5 2.2 0 3.4 1.1 4 1.8l-.5.7.7-.1 1.6-1.5c-.4-.3-1.1-.8-2.5-1.2-.9-.2-1.9-.4-2.9-.4-4.8 0-7.6 3.4-7.6 7 0 3 2 6.8 7.2 6.8 1 0 2-.2 3.1-.3l2.7-.6v-3.2c0-.1.1-.2.2-.3l.5-.5h-4l-1.4.8zm58.6-5.8c-1.4 0-2.6.8-3.3 1.7v-1.5h-1v12.9h1v-5.1c.8 1.1 2 1.7 3.3 1.7 2.5 0 4.2-1.9 4.2-4.9.1-2.9-1.6-4.8-4.2-4.8zm-.1 8.9c-1.3 0-2.6-1.1-3.1-2v-4.1c.5-.9 1.8-1.9 3.1-1.9 2.1 0 3.3 1.7 3.3 4s-1.2 4-3.3 4zm5.8-12.2h1v12.9h-1zm16 11.7l-3.4-8.2h-1.1l4 9.4-.7 1.7c-.4.9-.8 1.1-1.4 1.1-.2 0-.6-.1-.8-.2l-.2.9c.3.1.7.1 1 .1 1.1 0 1.9-.6 2.4-1.7l4.9-11.4h-1.2l-3.5 8.3zm-5.7-.7v-4.6c0-1-.3-1.7-1-2.3-.7-.5-1.6-.8-2.7-.8s-2 .3-2.7.8c-.7.5-1 1.2-1 1.9v.1h1c0-.5.2-1 .7-1.3.5-.3 1.1-.5 1.9-.5.8 0 1.5.2 1.9.6.5.4.7.9.7 1.6v1.2h-2.4c-1.3 0-2.3.3-3.1.8-.8.5-1.2 1.2-1.2 2s.3 1.5.8 2 1.3.7 2.3.7c.8 0 1.4-.2 2.1-.5.6-.3 1.1-.8 1.5-1.3v.7c0 .2.1.5.2.8h1.2c-.1-.3-.2-.6-.2-.9.1-.3 0-.7 0-1zm-1.1-.9c-.2.6-.7 1.1-1.3 1.5-.6.4-1.3.6-2.1.6-.7 0-1.2-.2-1.6-.5-.4-.3-.6-.8-.6-1.3 0-.6.3-1.1.9-1.5.6-.4 1.3-.6 2.3-.6h2.4v1.8zm-78.8-20h1.9v1c-.3.3-.9.6-1.5.6-1.3 0-2.2-1-2.2-2.3 0-1.3.9-2.3 2.2-2.3.7 0 1.3.4 1.7.8l.9-.5c-.5-.7-1.3-1.3-2.6-1.3-1.9 0-3.3 1.3-3.3 3.3 0 2 1.5 3.3 3.3 3.3 1.1 0 2-.5 2.6-1.2v-2.4h-3v1zm4.4 2.4h4.4v-.9h-3.3V601h3.2v-1h-3.2v-1.6h3.3v-1h-4.4zm5.6-5.3h1.9v5.3h1.1v-5.3h1.9v-1h-4.9zm8.8-1h1.1v6.3h-1.1zm2.3 1h1.9v5.3h1.1v-5.3h2v-1h-5zm11.8-1.1c-1.9 0-3.3 1.4-3.3 3.3s1.3 3.3 3.3 3.3c1.9 0 3.3-1.4 3.3-3.3s-1.4-3.3-3.3-3.3zm0 5.6c-1.3 0-2.1-1-2.1-2.3 0-1.3.8-2.3 2.1-2.3s2.1 1 2.1 2.3c0 1.3-.8 2.3-2.1 2.3zm9-1.1l-3.3-4.4h-1.1v6.3h1.1v-4.5l3.3 4.5h1.1v-6.3h-1.1z" class="st0"/><path d="M-294 621.9l-2.7-3.1-8.3 9.3zm-10.8-13.5l8.1 9.2 2.8-3zm15.9 9l-4.3-2.4-3 3.3 2.8 3.2 4.4-2.5c.9-.4.9-1.2.1-1.6zm-18-8.5v18.5c0 .6.2.9.6 1l9.1-10.2-9.1-10.3c-.4.2-.6.5-.6 1z"/></svg>
