<svg xmlns="http://www.w3.org/2000/svg" viewBox="-321 591 148 44" style="fill: #fff"><path id="Layer_1" d="M-177.7 634.5h-138.5c-2.6 0-4.7-2.1-4.7-4.7v-33.6c0-2.6 2.1-4.7 4.7-4.7h138.5c2.6 0 4.7 2.1 4.7 4.7v33.6c0 2.6-2.1 4.7-4.7 4.7zm-138.6-42c-2.1 0-3.7 1.7-3.7 3.7v33.6c0 2 1.7 3.7 3.7 3.7h138.5c2.1 0 3.7-1.7 3.7-3.7v-33.6c0-2.1-1.7-3.7-3.7-3.7h-138.5z"/><path id="Layer_2" d="M-284.9 607.4c-1.7-2.4-4.2-2.8-5.1-2.8-2.2-.2-4.2 1.3-5.3 1.3-1.1 0-2.8-1.3-4.6-1.2-2.3 0-4.5 1.4-5.7 3.5-2.5 4.3-.6 10.7 1.7 14.1 1.2 1.7 2.6 3.6 4.4 3.5 1.8-.1 2.4-1.1 4.6-1.1 2.1 0 2.8 1.1 4.6 1.1 1.9 0 3.1-1.7 4.3-3.4 1.4-2 1.9-3.9 2-4 0 0-3.7-1.4-3.7-5.7-.3-3.5 2.7-5.2 2.8-5.3zm-6.5-5.1c1-1.2 1.6-2.8 1.4-4.5-1.4.1-3.1 1-4.1 2.1-.9 1-1.7 2.7-1.5 4.3 1.6.2 3.2-.7 4.2-1.9zm25.4 19.1l1.4 4.3h2.5l-4.7-14.6h-2.9l-4.7 14.6h2.4l1.3-4.3h4.7zm-3.1-5.7c.3-1.2.5-2.1.7-2.8.4 1.4.6 2.4.7 2.8l1.2 3.8h-3.9l1.3-3.8zm11.3 14.3v-5.6c.6 1 1.6 1.5 3 1.5 1.3 0 2.4-.5 3.2-1.4 1-1 1.5-2.5 1.5-4.3 0-1.6-.4-2.9-1.2-3.9-.8-1-1.9-1.5-3.1-1.5-1.6 0-2.8.6-3.5 1.9l-.1-1.7h-2.1c.1 1.2.1 2.3.1 3.5V630h2.2zm0-10.4c0-.2 0-.4.1-.7.1-.6.5-1.1.9-1.5.5-.4 1-.6 1.6-.6.9 0 1.5.3 2 1s.7 1.5.7 2.5c0 1.1-.2 2-.7 2.7-.5.7-1.2 1-2.1 1-.7 0-1.4-.3-1.8-.8-.5-.5-.7-1.2-.7-1.9v-1.7zm12.1 10.4v-5.6c.6 1 1.6 1.5 3 1.5 1.3 0 2.4-.5 3.2-1.4 1-1 1.5-2.5 1.5-4.3 0-1.6-.4-2.9-1.2-3.9-.8-1-1.9-1.5-3.1-1.5-1.6 0-2.8.6-3.5 1.9l-.1-1.7h-2.1c.1 1.2.1 2.3.1 3.5V630h2.2zm0-10.4c0-.2 0-.4.1-.7.1-.6.4-1.1.9-1.5.5-.4 1-.6 1.6-.6.9 0 1.5.3 2 1s.7 1.5.7 2.5c0 1.1-.2 2-.7 2.7-.5.7-1.2 1-2.1 1-.8 0-1.4-.3-1.8-.8-.5-.5-.7-1.2-.7-1.9v-1.7zm16.1 4.3c-1.2 0-2.4-.3-3.4-.9l-.5 2c1 .6 2.2.9 3.8.9 1.7 0 3-.4 4-1.3.9-.8 1.3-1.8 1.3-3 0-1-.3-1.9-.9-2.5-.6-.7-1.5-1.3-2.8-1.8-1-.4-1.7-.8-2.1-1.1-.4-.4-.7-.9-.7-1.4 0-.5.2-1 .6-1.3.5-.4 1.1-.6 1.9-.6 1 0 2 .2 2.8.7l.6-1.9c-.9-.5-2-.7-3.3-.7-1.5 0-2.7.4-3.6 1.2-.9.8-1.3 1.8-1.3 3 0 1.8 1.3 3.2 3.8 4.2.9.3 1.6.7 2 1.1.4.4.6.9.6 1.5 0 .7-.2 1.2-.7 1.6-.5.1-1.2.3-2.1.3zm8-10.7v1.9h-1.5v1.8h1.5v5.3c0 1.3.3 2.3.8 2.8.5.6 1.2.8 2.2.8.8 0 1.4-.1 1.8-.3l-.1-1.8c-.3.1-.6.1-1 .1-.9 0-1.4-.7-1.4-2v-5.1h2.6v-1.8h-2.6v-2.6l-2.3.9zm15.1 11.1c.9-1 1.4-2.4 1.4-4s-.4-2.9-1.3-3.9-2.2-1.5-3.7-1.5c-1.6 0-2.9.5-3.8 1.6-.9 1-1.4 2.4-1.4 4s.5 2.9 1.4 3.9c.9 1 2.1 1.5 3.7 1.5 1.5 0 2.8-.5 3.7-1.6zm-5.9-1.4c-.4-.7-.6-1.5-.6-2.5s.2-1.9.6-2.5c.5-.8 1.2-1.3 2.1-1.3.9 0 1.6.4 2.1 1.3.4.7.6 1.5.6 2.5s-.2 1.8-.6 2.5c-.5.9-1.2 1.3-2.1 1.3-.9 0-1.6-.4-2.1-1.3zm11.7 2.8v-5.5c0-.8.2-1.5.6-2.1.4-.6 1.1-.9 1.9-.9.3 0 .5 0 .7.1v-2.2h-.6c-.6 0-1.2.2-1.7.6-.5.4-.9 1-1.2 1.7h-.1l-.1-2h-2c.1 1 .1 2.1.1 3.3v7.2h2.4zm13.7-5.8c0-1.3-.3-2.4-.9-3.3-.8-1.1-1.9-1.7-3.4-1.7s-2.8.6-3.7 1.7c-.9 1.1-1.3 2.4-1.3 4s.5 2.9 1.4 3.9c.9 1 2.2 1.4 3.8 1.4 1.4 0 2.5-.2 3.5-.7l-.4-1.6c-.9.3-1.8.5-2.8.5-.9 0-1.7-.2-2.3-.7-.7-.5-1-1.3-1-2.4h7c0-.3.1-.7.1-1.1zm-2.3-.6h-4.9c.1-.7.3-1.3.7-1.8.5-.6 1.1-1 1.9-1 .8 0 1.5.3 1.9 1 .3.5.4 1.1.4 1.8zm-77.9-17.3c0-1.2-.4-2-1.1-2.7-.6-.5-1.6-.8-2.8-.8-.7 0-1.4.1-2 .1v7.1c.5.1 1 .1 1.7.1 1.3 0 2.3-.3 3.1-.9.7-.6 1.1-1.6 1.1-2.9zm-1.9 2.2c-.5.5-1.2.7-2 .7h-.8v-5.4c.3-.1.6-.1.9-.1.9 0 1.5.2 1.9.7.4.4.7 1.1.7 1.9 0 1-.2 1.7-.7 2.2zm7.7.9c.5-.5.7-1.2.7-2s-.2-1.4-.7-1.9c-.5-.5-1.1-.8-1.8-.8-.8 0-1.4.3-1.9.8s-.7 1.2-.7 2 .2 1.4.7 1.9c.5.5 1.1.8 1.8.8.8 0 1.4-.3 1.9-.8zm-2.9-.7c-.2-.3-.3-.8-.3-1.2 0-.5.1-.9.3-1.3.2-.4.6-.6 1.1-.6.4 0 .8.2 1 .6.2.3.3.8.3 1.2s-.1.9-.3 1.2c-.2.4-.6.6-1 .6-.5.2-.9 0-1.1-.5zm12.2-3.8zm-4.2 2.9c.2-.5.3-1.1.4-1.7.1.6.2 1.1.4 1.7l.7 2.3h1.1l1.6-5.2h-1.1l-.6 2.4c-.2.6-.3 1.2-.4 1.7-.1-.5-.2-1.1-.4-1.7l-.7-2.4h-.9l-.7 2.5c-.2.7-.3 1.2-.4 1.7-.1-.5-.2-1.1-.4-1.7l-.6-2.5h-1.2l1.5 5.2h1.1l.6-2.3zm10.1 2.3v-3.1c0-.8-.2-1.3-.6-1.7-.3-.3-.7-.5-1.2-.5-.4 0-.7.1-1 .3-.3.2-.5.4-.6.6l-.1-.8h-1v5.2h1.1v-3.1c0-.3.1-.6.3-.9.2-.3.5-.4.8-.4.7 0 1 .5 1 1.4v3h1.3zm2-7.6h1.1v7.6h-1.1zm7.3 6.9c.5-.5.7-1.2.7-2s-.2-1.4-.7-1.9c-.5-.5-1.1-.8-1.8-.8-.8 0-1.4.3-1.9.8s-.7 1.2-.7 2 .2 1.4.7 1.9c.4.5 1.1.8 1.8.8.8 0 1.4-.3 1.9-.8zm-2.9-.7c-.2-.3-.3-.8-.3-1.2 0-.5.1-.9.3-1.3.2-.4.6-.6 1.1-.6.4 0 .8.2 1 .6.2.3.3.8.3 1.2s-.1.9-.3 1.2c-.2.4-.6.6-1 .6-.5.2-.9 0-1.1-.5zm5.7-1.5c-.5.3-.8.8-.8 1.5 0 .4.1.8.4 1.1.3.3.7.5 1.2.5.7 0 1.2-.2 1.5-.7l.1.6h1c0-.3-.1-.7-.1-1.2v-1.9c0-1.4-.7-2.1-2-2.1-.7 0-1.3.1-1.8.4l.2.8c.4-.3.8-.4 1.3-.4.7 0 1.1.3 1.1 1v.1c-.9-.2-1.6 0-2.1.3zm2.2.3v1c0 .2-.2.5-.4.6-.2.2-.5.2-.7.2-.2 0-.4-.1-.6-.2-.1-.1-.2-.3-.2-.6 0-.7.6-1 1.9-1zm6.5-5v3c-.3-.5-.8-.7-1.5-.7-.6 0-1.2.2-1.6.7-.4.5-.7 1.2-.7 2s.2 1.4.6 1.9.9.7 1.6.7c.8 0 1.3-.3 1.7-1l.1.8h1V598h-1.2zm0 5.4c0 .4-.1.7-.3.9-.2.3-.5.4-.9.4s-.8-.2-1-.5c-.2-.3-.4-.7-.4-1.2s.1-1 .4-1.3c.2-.3.6-.5 1-.5.3 0 .6.1.8.3.2.2.4.4.4.7v1.2zm10.4 1.5c.5-.5.7-1.2.7-2s-.2-1.4-.7-1.9c-.5-.5-1.1-.8-1.8-.8-.8 0-1.4.3-1.9.8s-.7 1.2-.7 2 .2 1.4.7 1.9c.5.5 1.1.8 1.8.8.8 0 1.4-.3 1.9-.8zm-2.9-.7c-.2-.3-.3-.8-.3-1.2 0-.5.1-.9.3-1.3.2-.4.6-.6 1.1-.6.4 0 .8.2 1 .6.2.3.3.8.3 1.2s-.1.9-.3 1.2c-.2.4-.6.6-1 .6-.5.2-.9 0-1.1-.5zm9.7 1.4v-3.1c0-.8-.2-1.3-.6-1.7-.3-.3-.7-.5-1.2-.5-.4 0-.7.1-1 .3-.3.2-.5.4-.6.6l-.1-.8h-1v5.2h1.2v-3.1c0-.3.1-.6.3-.9.2-.3.5-.4.8-.4.7 0 1 .5 1 1.4v3h1.2zm5.4-6.2v1h-.8v.9h.8v2.6c0 .7.1 1.1.4 1.4.3.3.6.4 1.1.4.4 0 .7 0 .9-.1v-.9c-.1 0-.3.1-.5.1-.4 0-.7-.3-.7-1v-2.5h1.3v-.9h-1.3v-1.3l-1.2.3zm4-1.4v7.6h1.1v-3.1c0-.2 0-.3.1-.4.2-.5.6-.8 1.1-.8.7 0 1 .5 1 1.4v2.9h1.1v-3.1c0-.8-.2-1.3-.6-1.7-.3-.3-.7-.5-1.2-.5-.7 0-1.2.3-1.6.9v-3.1h-1zm8.6 2.3c-.8 0-1.4.3-1.8.8-.4.5-.6 1.2-.6 2s.2 1.4.7 1.9c.5.5 1.1.7 1.9.7.7 0 1.2-.1 1.7-.3l-.2-.8c-.4.2-.9.2-1.4.2-.5 0-.8-.1-1.1-.4-.3-.3-.5-.7-.5-1.2h3.4v-.5c0-.6-.2-1.2-.5-1.6-.3-.5-.9-.8-1.6-.8zm-1.4 2.1c0-.3.2-.6.3-.9.2-.3.5-.5.9-.5s.7.2.9.5c.2.2.2.5.2.9h-2.3z" class="st0"/></svg>
