<svg xmlns="http://www.w3.org/2000/svg" version="1.2" baseProfile="tiny" class="logo" viewBox="0 0 450 98"><path fill="#eb1564" d="M0 31.7h80.8V49H0zM0 0h80.8v17.3H0zm80.8 63.5H0V98l19.5-17.2h61.3" class="logomark"/><path fill="#fff" d="M134.4 80.9h-13.3V31.7H134v6.1c3-5.1 8.9-7.4 14.2-7.4 12.2 0 17.8 8.7 17.8 19.5v31h-13.3V52.2c0-5.5-2.7-9.8-9.1-9.8-5.8 0-9.2 4.5-9.2 10.2v28.3zM226 66.8c-2.5 8.5-10.3 15.6-22.4 15.6-13.5 0-25.4-9.7-25.4-26.3 0-15.7 11.6-25.9 24.2-25.9 15.2 0 24.3 9.7 24.3 25.5 0 1.9-.2 3.9-.2 4.1h-35.2c.3 6.5 5.8 11.2 12.4 11.2 6.2 0 9.6-3.1 11.2-7.5l11.1 3.3zm-12.4-16.1c-.2-4.9-3.4-9.7-11-9.7-6.9 0-10.7 5.2-11 9.7h22zm114.5 14c.3 3.9 3.2 7.5 9 7.5 4.4 0 6.5-2.3 6.5-4.9 0-2.2-1.5-4-5.3-4.8l-6.5-1.5c-9.5-2.1-13.8-7.8-13.8-14.7 0-8.8 7.8-16.1 18.4-16.1 14 0 18.7 8.9 19.3 14.2l-11.1 2.5c-.4-2.9-2.5-6.6-8.1-6.6-3.5 0-6.3 2.1-6.3 4.9 0 2.4 1.8 3.9 4.5 4.4l7 1.5c9.7 2 14.6 7.9 14.6 15.1 0 8-6.2 16.2-19.1 16.2-14.8 0-19.9-9.6-20.5-15.2l11.4-2.5zm49.4-57.3c4.6 0 8.2 3.7 8.2 8.3 0 4.4-3.6 8.1-8.2 8.1-4.5 0-8.2-3.7-8.2-8.1 0-4.7 3.7-8.3 8.2-8.3zm-6.6 24.3h13.3v49.1h-13.3zM450 56.3c0 15.1-11.1 26.1-25.8 26.1-14.7 0-25.8-11-25.8-26.1 0-15.2 11.1-26.1 25.8-26.1 14.7 0 25.8 10.9 25.8 26.1zm-13.3 0c0-9.3-6-14-12.5-14s-12.5 4.7-12.5 14c0 9.2 6 14 12.5 14s12.5-4.7 12.5-14zM295.9 31.7l-8.7 31.6-9.1-31.6h-11.8l-9.2 31.6-8.7-31.6h-14l15.7 49.2h13l9-29 9.1 29h13l15.7-49.2" class="logotype"/></svg>