<svg version="1" xmlns="http://www.w3.org/2000/svg" width="853.333" height="853.333" viewBox="0 0 640.000000 640.000000"><path d="M56 56.5V113h527V0H56v56.5zM58 218.8c-.2 67.4.1 100.6.9 101.1.7.5 522 .6 525.4.2.4-.1.7-25.5.7-56.5v-56.4H321.5L58 207.1v11.7zM58.4 415.2c-.4.6-.6 125.2-.4 212.3v13l2.3-2.3c3.8-3.8 11.8-11 15.8-14.3 2-1.6 5-4.2 6.6-5.7 1.6-1.5 6-5.4 9.7-8.7 3.8-3.3 8.4-7.4 10.2-9 1.8-1.7 5.9-5.3 9-8 3.2-2.8 6.9-6.1 8.3-7.3 1.4-1.3 5.3-4.7 8.6-7.5 3.2-2.9 6.6-5.9 7.5-6.7.8-.8 4.7-4.2 8.5-7.5s7.6-6.7 8.5-7.5c.9-.8 4.4-4 7.9-7s7.3-6.4 8.5-7.5c1.2-1.1 5.2-4.7 8.9-8l6.8-6h399.4l.3-56.5.2-56.5H321.9c-144.7 0-263.3.3-263.5.7z"/></svg>