<svg xmlns="http://www.w3.org/2000/svg" id="Layer_1" viewBox="0 0 339.5 242.7">
  <style>
    .st0{opacity:0.12;} .st1{fill:#FFFFFF;} .st2{fill:#4570B7;} .st3{fill:#29579A;} .st4{fill:#CA2027;} .st5{fill:#931A1D;} .st6{opacity:0.54;} .st7{fill:#F1F2F2;} .st8{fill:#00AEEF;} .st9{fill:#00A651;} .st10{fill:#F9ED32;} .st11{fill:#3C2415;} .st12{fill:#006838;} .st13{fill:#00743C;}
  </style>
  <g class="st0">
    <path d="M295.8 239.7h-266c-6.6 0-12-5.4-12-12v-169c0-6.6 5.4-12 12-12h266c6.6 0 12 5.4 12 12v169c0 6.6-5.4 12-12 12z" class="st1"/>
    <path d="M295.8 43.7h-12v3h12v-3zm-24 0h-12v3h12v-3zm-24 0h-12v3h12v-3zm-24 0h-12v3h12v-3zm-24 0h-12v3h12v-3zm-24 0h-12v3h12v-3zm-24 0h-12v3h12v-3zm-24 0h-12v3h12v-3zm-24 0h-12v3h12v-3zm-24 0h-12v3h12v-3zm-24 0h-12v3h12v-3zm-24 0h-2c-4.2 0-8.2 1.8-11.1 4.9l2.2 2c.8-.9 1.7-1.6 2.7-2.2.1 0 .1-.1.2-.1h3.4v-4.6h4.6zm-14 18.2h-3v12h3v-12zm0 24h-3v12h3v-12zm0 24h-3v12h3v-12zm0 24h-3v12h3v-12zm0 24h-3v12h3v-12zm0 24h-3v12h3v-12zm0 24h-3v12h3v-12zm.2 24l-3 .5c.9 5 4.4 9.2 9 11.2l1.1-2.8c-3.6-1.5-6.4-4.9-7.1-8.9zm31.1 9.8h-12v3h12v-3zm24 0h-12v3h12v-3zm24 0h-12v3h12v-3zm24 0h-12v3h12v-3zm24 0h-12v3h12v-3zm24 0h-12v3h12v-3zm24 0h-12v3h12v-3zm24 0h-12v3h12v-3zm24 0h-12v3h12v-3zm24 0h-12v3h12v-3zm24 0h-12v3h12v-3zm18.6-10.5c-.4 3.1-2 5.9-4.3 7.8l-.1.1c-.5.3-.9.6-1.4.8l1.3 2.7c4.6-2.2 7.8-6.6 8.4-11.6l-3.9.2zm3.1-23.9h-3v12h3v-12zm0-24h-3v12h3v-12zm0-24h-3v12h3v-12zm0-24h-3v12h3v-12zm0-24h-3v12h3v-12zm0-24h-3v12h3v-12zm0-24h-3v12h3v-12zm-15-17.6v3h.1c1.5.6 2.9 1.5 4 2.6l2.1-2.1c1.5-1.9-2.2-3.5-6.2-3.5z"/>
  </g>
  <path d="M185.4 99l-67.9-3.3c-4.1-.2-7.3-3.5-7.1-7.3l4-81.9c.2-3.8 3.7-6.8 7.8-6.6l55 2.7L196.6 24l-3.3 68.4c-.3 3.9-3.8 6.8-7.9 6.6z" class="st2"/>
  <path d="M196.5 24.1l-12.9-.6c-4.1-.2-7.3-3.5-7.1-7.3l.7-13.5 19.3 21.4z" class="st3"/>
  <path d="M140.8 56.2c-.1 1.2-.4 2.2-1 3.1-.6.9-1.4 1.6-2.4 2-1 .4-2.2.6-3.5.6l-5.4-.3.6-11.7 5.2.3c4.5.2 6.7 2.2 6.5 6zm-4.1-.2c0-.6-.1-1.1-.3-1.6-.2-.5-.6-.8-1-1.1s-1-.4-1.6-.5h-1l-.3 6.2 1.1.1c.9 0 1.7-.2 2.2-.8.6-.5.9-1.3.9-2.3zm17.9 1c-.1 1.2-.4 2.2-1 3.1-.6.9-1.4 1.6-2.4 2.1s-2.1.7-3.3.6c-1.2-.1-2.3-.4-3.2-.9-.9-.5-1.7-1.3-2.2-2.2-.5-.9-.7-2-.7-3.1.1-1.2.4-2.3 1-3.2.6-.9 1.4-1.6 2.4-2.1s2.2-.7 3.4-.6c1.2.1 2.3.4 3.2.9.9.5 1.6 1.3 2.1 2.2.5.9.7 2 .7 3.2zm-4.1-.1c0-1-.1-1.7-.5-2.3-.4-.6-.9-.9-1.6-.9-.8 0-1.4.2-1.8.7-.4.5-.7 1.3-.7 2.2 0 1 .1 1.7.5 2.3.4.6 1 .8 1.7.9.4 0 .8-.1 1.2-.3s.7-.6.9-1c.2-.5.3-1 .3-1.6zm15 6.2c-1.1.3-2.3.4-3.7.3-1.3-.1-2.5-.4-3.5-.9s-1.7-1.2-2.1-2.1c-.5-.9-.7-1.9-.6-3.1.1-1.2.4-2.3 1-3.3.6-.9 1.5-1.6 2.6-2.1s2.3-.7 3.7-.6c1.1.1 2.1.2 3.2.5l-.2 3.3c-.3-.2-.8-.4-1.2-.5-.5-.1-1-.2-1.5-.2-1-.1-1.9.2-2.5.7-.6.5-1 1.3-1 2.2 0 .9.2 1.7.8 2.3.6.6 1.4.9 2.4.9.9 0 1.9-.1 2.8-.5l-.2 3.1zm8.9.7l-1.4-3.3c-.1-.2-.1-.4-.2-.6 0-.2 0-.4-.1-.5 0 .1-.1.3-.1.5-.1.2-.1.4-.2.6l-1.6 3.1-4.5-.2 4.1-5.7-3.2-6 4.6.2 1.1 3.2c.1.3.2.7.3 1.2.1-.5.2-.9.4-1.1l1.6-3 4.2.2-3.8 5.6 3.4 6.1-4.6-.3z" class="st1"/>
  <path d="M88.6 168.5l-67.1 10.7c-4.1.6-7.9-1.9-8.5-5.7l-13-81c-.6-3.8 2.2-7.4 6.3-8l54.3-8.7 23.4 17 10.8 67.6c.7 3.9-2.1 7.5-6.2 8.1z" class="st4"/>
  <path d="M84.1 92.9l-12.8 2c-4.1.6-7.9-1.9-8.5-5.7l-2.1-13.4 23.4 17.1z" class="st5"/>
  <path d="M42.3 132.9c.1.8 0 1.5-.3 2.2-.3.7-.9 1.3-1.6 1.7-.8.5-1.7.8-2.7 1l-1.2.2.6 3.7-3.8.6-1.9-11.6 5.1-.8c1.8-.3 3.1-.2 4 .3 1.1.5 1.6 1.4 1.8 2.7zm-3.9.7c-.1-.5-.3-.8-.6-1-.3-.2-.8-.2-1.4-.2l-.7.1.5 2.9.8-.1c1.1-.2 1.5-.7 1.4-1.7zm17.5-1c.2 1.2.1 2.3-.3 3.2-.4 1-1 1.8-1.9 2.5-.9.6-2 1.1-3.3 1.3l-5.3.8-1.9-11.6 5.2-.8c4.4-.7 6.9.8 7.5 4.6zm-4 .7c-.1-.6-.3-1.1-.6-1.5-.3-.4-.7-.7-1.2-.9-.5-.2-1.1-.2-1.7-.1l-1 .2 1 6.1 1.1-.2c.9-.1 1.6-.5 2-1.2.4-.7.6-1.5.4-2.4zm9.1-4.5l.3 2.1 3.7-.6.4 2.7-3.7.6.6 4-3.8.6-1.9-11.6 7.8-1.3.4 2.7-3.8.8z" class="st1"/>
  <path d="M104.7 151.9v-9.8h2.7c3.5 0 5.2 1.6 5.2 4.8 0 1.5-.5 2.7-1.4 3.6-1 .9-2.2 1.4-3.9 1.4h-2.6zm1.1-8.8v7.7h1.5c1.3 0 2.3-.3 3-1s1.1-1.7 1.1-2.9c0-2.5-1.3-3.8-4-3.8h-1.6zM118 146c-.2-.2-.5-.2-.8-.2-.5 0-.9.2-1.2.7s-.5 1.1-.5 1.8v3.6h-1.1v-7h1.1v1.4c.2-.5.4-.9.7-1.2.3-.3.7-.4 1.1-.4.3 0 .5 0 .7.1v1.2zm6.2 5.9h-1.1v-1.1c-.5.8-1.2 1.3-2.2 1.3-.7 0-1.2-.2-1.6-.6s-.6-.9-.6-1.5c0-1.3.8-2.1 2.3-2.3l2.1-.3c0-1.2-.5-1.8-1.4-1.8-.8 0-1.6.3-2.3.9v-1.1c.7-.4 1.5-.7 2.4-.7 1.6 0 2.5.9 2.5 2.6v4.6zm-1.1-3.5l-1.7.2c-.5.1-.9.2-1.2.4-.3.2-.4.5-.4 1 0 .3.1.6.4.8.2.2.6.3 1 .3.6 0 1-.2 1.4-.6.4-.4.5-.9.5-1.5v-.6zm9.2 2.9c0 2.6-1.2 3.9-3.7 3.9-.9 0-1.6-.2-2.3-.5v-1.1c.8.4 1.5.7 2.3.7 1.7 0 2.6-.9 2.6-2.7v-.8c-.5.9-1.3 1.3-2.4 1.3-.9 0-1.6-.3-2.1-.9-.5-.6-.8-1.5-.8-2.5 0-1.2.3-2.1.9-2.8s1.4-1.1 2.3-1.1c.9 0 1.6.4 2.1 1.1v-1h1.1v6.4zm-1.1-2.6v-1c0-.6-.2-1-.6-1.4s-.8-.6-1.4-.6c-.7 0-1.2.3-1.6.8-.4.5-.6 1.2-.6 2.1 0 .8.2 1.4.6 1.9.4.5.9.7 1.5.7s1.1-.2 1.5-.7.6-1.1.6-1.8zm12.2 3.2h-1.1v-1.1c-.5.8-1.2 1.3-2.2 1.3-.7 0-1.2-.2-1.6-.6s-.6-.9-.6-1.5c0-1.3.8-2.1 2.3-2.3l2.1-.3c0-1.2-.5-1.8-1.4-1.8-.8 0-1.6.3-2.3.9v-1.1c.7-.4 1.5-.7 2.4-.7 1.6 0 2.5.9 2.5 2.6v4.6zm-1.1-3.5l-1.7.2c-.5.1-.9.2-1.2.4-.3.2-.4.5-.4 1 0 .3.1.6.4.8.2.2.6.3 1 .3.6 0 1-.2 1.4-.6.4-.4.5-.9.5-1.5v-.6zm9 3.5h-1.1v-4c0-1.5-.5-2.2-1.6-2.2-.6 0-1 .2-1.4.6-.4.4-.6 1-.6 1.6v4h-1.1v-7h1.1v1.2c.5-.9 1.3-1.3 2.3-1.3.8 0 1.4.2 1.8.7.4.5.6 1.2.6 2.1v4.3zm8.1 0h-1.1v-1.2c-.5.9-1.3 1.4-2.4 1.4-.9 0-1.6-.3-2.1-.9-.5-.6-.8-1.5-.8-2.6 0-1.2.3-2.1.9-2.8s1.4-1 2.3-1c1 0 1.7.4 2.1 1.1v-4.3h1.1v10.3zm-1.1-3.2v-1c0-.6-.2-1-.6-1.4s-.8-.6-1.4-.6c-.7 0-1.2.3-1.6.8s-.6 1.2-.6 2.1c0 .8.2 1.4.6 1.9.4.5.9.7 1.5.7s1.1-.2 1.5-.7.6-1.1.6-1.8zm13.2 3.2h-1.1v-1.2c-.5.9-1.3 1.4-2.4 1.4-.9 0-1.6-.3-2.1-.9-.5-.6-.8-1.5-.8-2.6 0-1.2.3-2.1.9-2.8s1.4-1 2.3-1c1 0 1.7.4 2.1 1.1v-4.3h1.1v10.3zm-1.1-3.2v-1c0-.6-.2-1-.6-1.4s-.8-.6-1.4-.6c-.7 0-1.2.3-1.6.8s-.6 1.2-.6 2.1c0 .8.2 1.4.6 1.9.4.5.9.7 1.5.7s1.1-.2 1.5-.7.6-1.1.6-1.8zm7-2.7c-.2-.2-.5-.2-.8-.2-.5 0-.9.2-1.2.7s-.5 1.1-.5 1.8v3.6h-1.1v-7h1.1v1.4c.2-.5.4-.9.7-1.2.3-.3.7-.4 1.1-.4.3 0 .5 0 .7.1v1.2zm4.2 6.1c-1 0-1.9-.3-2.5-1-.6-.7-.9-1.5-.9-2.6 0-1.2.3-2.1 1-2.8s1.5-1 2.6-1c1 0 1.9.3 2.4 1s.9 1.5.9 2.7c0 1.1-.3 2-.9 2.7-.7.6-1.6 1-2.6 1zm.1-6.4c-.7 0-1.3.2-1.7.7-.4.5-.6 1.2-.6 2s.2 1.5.6 2 1 .7 1.7.7 1.3-.2 1.7-.7.6-1.1.6-2c0-.9-.2-1.5-.6-2s-1-.7-1.7-.7zm6.3 5.2v4.2h-1.1v-10.2h1.1v1.2c.6-.9 1.4-1.4 2.4-1.4.9 0 1.6.3 2.1.9.5.6.8 1.5.8 2.5 0 1.2-.3 2.1-.9 2.8-.6.7-1.3 1.1-2.3 1.1-.9.1-1.6-.3-2.1-1.1zm0-2.8v1c0 .6.2 1.1.6 1.5.4.4.9.6 1.4.6.7 0 1.2-.3 1.6-.8s.6-1.2.6-2.2c0-.8-.2-1.4-.5-1.8s-.8-.7-1.5-.7-1.2.2-1.6.7c-.4.4-.6 1-.6 1.7zm14.4-5.6c-.2-.1-.5-.2-.7-.2-.8 0-1.2.5-1.2 1.5v1.1h1.6v1h-1.6v6h-1.1v-6h-1.2v-1h1.2v-1.1c0-.7.2-1.3.6-1.7.4-.4 1-.6 1.6-.6.3 0 .6 0 .8.1v.9zm1.5.6c-.2 0-.4-.1-.5-.2s-.2-.3-.2-.5.1-.4.2-.5c.1-.1.3-.2.5-.2s.4.1.5.2c.1.1.2.3.2.5s-.1.4-.2.5-.3.2-.5.2zm.5 8.8h-1.1v-7h1.1v7zm3.4 0h-1.1v-10.4h1.1v10.4zm7.9-3.2h-4.9c0 .8.2 1.4.6 1.8s1 .6 1.7.6c.8 0 1.5-.3 2.2-.8v1.1c-.6.4-1.4.7-2.4.7s-1.8-.3-2.3-1c-.6-.6-.8-1.5-.8-2.7 0-1.1.3-2 .9-2.7.6-.7 1.4-1 2.3-1s1.6.3 2.1.9.8 1.4.8 2.5v.6zm-1.1-1c0-.6-.2-1.2-.5-1.5s-.7-.5-1.3-.5c-.5 0-1 .2-1.3.6s-.6.9-.7 1.5h3.8zm2.4 4v-1.2c.6.5 1.3.7 2 .7 1 0 1.5-.3 1.5-1 0-.2 0-.3-.1-.5l-.3-.3s-.3-.2-.5-.3l-.6-.3c-.3-.1-.6-.2-.8-.4-.2-.1-.4-.3-.6-.4-.2-.2-.3-.3-.4-.5s-.1-.4-.1-.7c0-.3.1-.6.2-.9.2-.3.4-.5.6-.6.3-.2.5-.3.9-.4s.7-.1 1-.1c.6 0 1.1.1 1.6.3v1.1c-.5-.3-1.1-.5-1.8-.5-.2 0-.4 0-.6.1-.2 0-.3.1-.4.2l-.3.3c-.1.1-.1.3-.1.4 0 .2 0 .3.1.5s.2.2.3.3.3.2.5.3l.6.3c.3.1.6.2.8.4.2.1.5.3.6.4.2.2.3.3.4.5s.1.4.1.7c0 .3-.1.6-.2.9s-.4.5-.6.6-.5.3-.9.4-.7.1-1 .1c-.8 0-1.4-.2-1.9-.4zm-87.9 17H128v-4c0-1.5-.5-2.2-1.6-2.2-.5 0-1 .2-1.4.6-.4.4-.6 1-.6 1.6v4h-1.1v-10.4h1.1v4.5c.5-.9 1.3-1.3 2.3-1.3 1.6 0 2.4 1 2.4 2.9v4.3zm7.8-3.2H132c0 .8.2 1.4.6 1.8s1 .6 1.7.6c.8 0 1.5-.3 2.2-.8v1.1c-.6.4-1.4.7-2.4.7s-1.8-.3-2.3-1c-.6-.6-.8-1.5-.8-2.7 0-1.1.3-2 .9-2.7.6-.7 1.4-1 2.3-1s1.6.3 2.1.9.8 1.4.8 2.5v.6zm-1.2-1c0-.6-.2-1.2-.5-1.5s-.7-.5-1.3-.5c-.5 0-1 .2-1.3.6s-.6.9-.7 1.5h3.8zm6.5-1.7c-.2-.2-.5-.2-.8-.2-.5 0-.9.2-1.2.7s-.5 1.1-.5 1.8v3.6h-1.1v-7h1.1v1.4c.2-.5.4-.9.7-1.2.3-.3.7-.4 1.1-.4.3 0 .5 0 .7.1v1.2zm6.9 2.7h-4.9c0 .8.2 1.4.6 1.8s1 .6 1.7.6c.8 0 1.5-.3 2.2-.8v1.1c-.6.4-1.4.7-2.4.7s-1.8-.3-2.3-1c-.6-.6-.8-1.5-.8-2.7 0-1.1.3-2 .9-2.7.6-.7 1.4-1 2.3-1s1.6.3 2.1.9.8 1.4.8 2.5v.6zm-1.2-1c0-.6-.2-1.2-.5-1.5s-.7-.5-1.3-.5c-.5 0-1 .2-1.3.6s-.6.9-.7 1.5h3.8zm9.9 4.1c-.3.1-.6.2-1 .2-1.2 0-1.8-.7-1.8-2.1v-4.1h-1.2v-1h1.2V160l1.1-.4v2.1h1.8v1h-1.8v3.9c0 .5.1.8.2 1s.4.3.8.3c.3 0 .5-.1.7-.2v.9zm4.5.3c-1 0-1.9-.3-2.5-1-.6-.7-.9-1.5-.9-2.6 0-1.2.3-2.1 1-2.8s1.5-1 2.6-1c1 0 1.9.3 2.4 1s.9 1.5.9 2.7c0 1.1-.3 2-.9 2.7-.7.6-1.6 1-2.6 1zm0-6.4c-.7 0-1.3.2-1.7.7-.4.5-.6 1.2-.6 2s.2 1.5.6 2 1 .7 1.7.7 1.3-.2 1.7-.7.6-1.1.6-2c0-.9-.2-1.5-.6-2s-.9-.7-1.7-.7zm8.6 6v-1.2c.6.5 1.3.7 2 .7 1 0 1.5-.3 1.5-1 0-.2 0-.3-.1-.5l-.3-.3s-.3-.2-.5-.3l-.6-.3c-.3-.1-.6-.2-.8-.4-.2-.1-.4-.3-.6-.4-.2-.2-.3-.3-.4-.5s-.1-.4-.1-.7c0-.3.1-.6.2-.9.2-.3.4-.5.6-.6.3-.2.5-.3.9-.4s.7-.1 1-.1c.6 0 1.1.1 1.6.3v1.1c-.5-.3-1.1-.5-1.8-.5-.2 0-.4 0-.6.1-.2 0-.3.1-.4.2l-.3.3c-.1.1-.1.3-.1.4 0 .2 0 .3.1.5s.2.2.3.3.3.2.5.3l.6.3c.3.1.6.2.8.4.2.1.5.3.6.4.2.2.3.3.4.5s.1.4.1.7c0 .3-.1.6-.2.9s-.4.5-.6.6-.5.3-.9.4-.7.1-1 .1c-.7 0-1.3-.2-1.9-.4zm12.2.2H182v-4c0-1.5-.5-2.2-1.6-2.2-.5 0-1 .2-1.4.6-.4.4-.6 1-.6 1.6v4h-1.1v-10.4h1.1v4.5c.5-.9 1.3-1.3 2.3-1.3 1.6 0 2.4 1 2.4 2.9v4.3zm7.1 0h-1.1v-1.1c-.5.8-1.2 1.3-2.2 1.3-.7 0-1.2-.2-1.6-.6s-.6-.9-.6-1.5c0-1.3.8-2.1 2.3-2.3l2.1-.3c0-1.2-.5-1.8-1.4-1.8-.8 0-1.6.3-2.3.9v-1.1c.7-.4 1.5-.7 2.4-.7 1.6 0 2.5.9 2.5 2.6v4.6zm-1.1-3.5l-1.7.2c-.5.1-.9.2-1.2.4-.3.2-.4.5-.4 1 0 .3.1.6.4.8.2.2.6.3 1 .3.6 0 1-.2 1.4-.6.4-.4.5-.9.5-1.5v-.6zm6.9-2.4c-.2-.2-.5-.2-.8-.2-.5 0-.9.2-1.2.7s-.5 1.1-.5 1.8v3.6h-1.1v-7h1.1v1.4c.2-.5.4-.9.7-1.2.3-.3.7-.4 1.1-.4.3 0 .5 0 .7.1v1.2zm6.9 2.7H198c0 .8.2 1.4.6 1.8s1 .6 1.7.6c.8 0 1.5-.3 2.2-.8v1.1c-.6.4-1.4.7-2.4.7s-1.8-.3-2.3-1c-.6-.6-.8-1.5-.8-2.7 0-1.1.3-2 .9-2.7.6-.7 1.4-1 2.3-1s1.6.3 2.1.9.8 1.4.8 2.5v.6zm-1.2-1c0-.6-.2-1.2-.5-1.5s-.7-.5-1.3-.5c-.5 0-1 .2-1.3.6s-.6.9-.7 1.5h3.8z" class="st6"/>
  <path d="M321.3 162.8c-.4 0-.7 0-1.1-.1l-75.3-10c-4.6-.6-7.9-4.9-7.2-9.5l8.3-62.5c.6-4.2 4.1-7.3 8.3-7.3.4 0 .7 0 1.1.1l75.3 10c4.6.6 7.9 4.9 7.2 9.5l-8.3 62.5c-.5 4.1-4.1 7.3-8.3 7.3z" class="st1"/>
  <path d="M254.2 74.9c.3 0 .6 0 .9.1l75.3 10c1.8.2 3.4 1.2 4.6 2.7 1.1 1.5 1.6 3.3 1.4 5.1l-8.3 62.5c-.5 3.4-3.4 6-6.9 6-.3 0-.6 0-.9-.1l-75.3-10c-1.8-.2-3.4-1.2-4.6-2.7-1.1-1.5-1.6-3.3-1.4-5.1l8.3-62.5c.5-3.4 3.4-6 6.9-6m0-3c-4.9 0-9.2 3.6-9.8 8.6l-8.3 62.5c-.7 5.4 3.1 10.4 8.5 11.1l75.3 10c.4.1.9.1 1.3.1 4.9 0 9.2-3.6 9.8-8.6l8.3-62.5c.7-5.4-3.1-10.4-8.5-11.1l-75.3-10c-.4 0-.9-.1-1.3-.1z" class="st7"/>
  <path d="M321.3 162.8c-.4 0-.7 0-1.1-.1l-75.3-10c-4.6-.6-7.9-4.9-7.2-9.5l8.3-62.5c.6-4.2 4.1-7.3 8.3-7.3.4 0 .7 0 1.1.1l75.3 10c4.6.6 7.9 4.9 7.2 9.5l-8.3 62.5c-.5 4.1-4.1 7.3-8.3 7.3z" class="st8"/>
  <path d="M254.2 74.9c.3 0 .6 0 .9.1l75.3 10c1.8.2 3.4 1.2 4.6 2.7 1.1 1.5 1.6 3.3 1.4 5.1l-8.3 62.5c-.5 3.4-3.4 6-6.9 6-.3 0-.6 0-.9-.1l-75.3-10c-1.8-.2-3.4-1.2-4.6-2.7-1.1-1.5-1.6-3.3-1.4-5.1l8.3-62.5c.5-3.4 3.4-6 6.9-6m0-3c-4.9 0-9.2 3.6-9.8 8.6l-8.3 62.5c-.7 5.4 3.1 10.4 8.5 11.1l75.3 10c.4.1.9.1 1.3.1 4.9 0 9.2-3.6 9.8-8.6l8.3-62.5c.7-5.4-3.1-10.4-8.5-11.1l-75.3-10c-.4 0-.9-.1-1.3-.1z" class="st7"/>
  <path d="M259.9 133.3c-1.9-.7-3.9-1.2-6-1.5-4.7-.6-9.3-.1-13.4 1.4l-1.4 10.3c-.5 3.8 2.2 7.3 6 7.8l75.3 10c3.8.5 7.3-2.2 7.8-6l1.4-10.7c-8.7-6.5-21.3-11.5-35.7-13.4-12.6-1.8-24.5-.8-34 2.1z" class="st9"/>
  <path d="M275.6 79c.1-.4.1-.9.1-1.3L255.1 75c-3.8-.5-7.3 2.2-7.8 6l-1.1 8.6c2.2 1 4.6 1.7 7.2 2 11.2 1.4 21.1-4.2 22.2-12.6z" class="st10"/>
  <path d="M286.43 136.15l2.38-17.95 6.58.87L293 137z" class="st11"/>
  <path d="M312 112.6c-.9 6.8-9.2 11.3-18.5 10-9.3-1.3-16.2-7.8-15.3-14.6.9-6.8 9.2-11.3 18.5-10 9.3 1.3 16.2 7.8 15.3 14.6z" class="st12"/>
  <path d="M306 113.6c-.9 6.8-9.2 11.3-18.5 10-9.3-1.3-16.2-7.8-15.3-14.6.9-6.8 9.2-11.3 18.5-10 9.3 1.3 16.2 7.8 15.3 14.6z" class="st13"/>
</svg>
